<svg width="50" height="50" viewBox="0 0 50 50" fill="none" xmlns="http://www.w3.org/2000/svg">
<g clip-path="url(#clip0_1_2)">
<path d="M50 50H0V0H50V50ZM24.9209 6.61328C21.7846 6.61328 18.9605 7.30707 16.4492 8.69336C13.9379 10.0797 11.9431 12.1079 10.4658 14.7783C8.99991 17.4488 8.2666 20.705 8.2666 24.5459C8.26666 28.3753 8.99997 31.6255 10.4658 34.2959C11.9431 36.9548 13.9379 38.9832 16.4492 40.3809C18.9605 41.7785 21.7847 42.4775 24.9209 42.4775C28.0457 42.4775 30.8638 41.7838 33.375 40.3975C35.8977 39.0111 37.8977 36.9829 39.375 34.3125C40.8522 31.6421 41.5908 28.3866 41.5908 24.5459C41.5908 20.705 40.8523 17.4488 39.375 14.7783C37.8977 12.1079 35.8977 10.0797 33.375 8.69336C30.8638 7.30706 28.0457 6.61335 24.9209 6.61328ZM24.9209 14.0117C26.6025 14.0118 28.0403 14.4149 29.2334 15.2217C30.4378 16.0285 31.3578 17.2161 31.9941 18.7842C32.6419 20.3524 32.9658 22.2732 32.9658 24.5459C32.9658 26.8184 32.6418 28.7386 31.9941 30.3066C31.3578 31.8747 30.4378 33.0623 29.2334 33.8691C28.0403 34.6759 26.6025 35.079 24.9209 35.0791C23.2505 35.0791 21.8129 34.6759 20.6084 33.8691C19.4039 33.0623 18.4768 31.8748 17.8291 30.3066C17.1929 28.7386 16.875 26.8183 16.875 24.5459C16.875 22.2733 17.1928 20.3523 17.8291 18.7842C18.4768 17.216 19.4039 16.0285 20.6084 15.2217C21.8129 14.415 23.2506 14.0117 24.9209 14.0117Z" fill="white"/>
</g>
<defs>
<clipPath id="clip0_1_2">
<rect width="50" height="50" fill="white"/>
</clipPath>
</defs>
</svg>
