<?xml version="1.0" standalone="no"?>
<!DOCTYPE svg PUBLIC "-//W3C//DTD SVG 20010904//EN"
 "http://www.w3.org/TR/2001/REC-SVG-20010904/DTD/svg10.dtd">
<svg version="1.0" xmlns="http://www.w3.org/2000/svg"
 width="1312.000000pt" height="280.000000pt" viewBox="0 0 1312.000000 280.000000"
 preserveAspectRatio="xMidYMid meet">

<g transform="translate(0.000000,280.000000) scale(0.100000,-0.100000)"
fill="#000000" stroke="none">
<path d="M2660 1460 l0 -710 155 0 155 0 0 710 0 710 -155 0 -155 0 0 -710z"/>
<path d="M5170 1460 l0 -710 155 0 155 0 0 156 0 155 32 40 c17 21 35 39 39
39 3 0 58 -88 120 -195 l114 -195 188 0 c103 0 187 2 187 4 0 3 -86 129 -191
282 -105 152 -193 283 -196 289 -2 7 67 93 154 191 87 99 164 187 172 197 13
16 3 17 -171 17 l-184 0 -121 -182 c-66 -101 -126 -192 -132 -203 -8 -15 -10
92 -11 403 l0 422 -155 0 -155 0 0 -710z"/>
<path d="M8561 2148 c-81 -23 -116 -76 -109 -164 7 -84 65 -134 155 -134 96 0
163 62 163 150 0 103 -105 178 -209 148z"/>
<path d="M10268 2144 c-108 -33 -139 -171 -57 -253 34 -34 79 -46 146 -38 85
9 137 74 130 160 -9 106 -108 165 -219 131z"/>
<path d="M6682 2100 c-311 -82 -499 -370 -479 -733 7 -124 25 -196 77 -306 32
-67 56 -100 118 -160 123 -122 250 -171 442 -171 322 0 544 167 632 475 30
106 33 334 5 435 -65 240 -223 404 -443 460 -102 26 -252 26 -352 0z m295
-256 c122 -59 193 -211 193 -412 0 -123 -12 -189 -49 -268 -61 -131 -145 -189
-271 -188 -89 0 -155 29 -212 92 -75 83 -108 192 -108 355 0 196 60 342 167
409 87 53 187 57 280 12z"/>
<path d="M1590 2100 c-47 -5 -95 -12 -107 -15 l-23 -5 0 -660 c0 -391 4 -661
9 -665 5 -3 80 -10 166 -16 262 -17 498 11 625 76 187 95 261 333 157 507 -36
59 -113 122 -169 140 -21 6 -38 14 -38 18 0 4 18 15 41 25 61 28 136 115 155
182 18 62 14 140 -11 199 -35 85 -143 165 -270 200 -71 19 -398 28 -535 14z
m440 -243 c124 -65 98 -230 -44 -272 -27 -8 -87 -15 -133 -15 l-83 0 0 155 0
155 108 0 c94 0 115 -3 152 -23z m-80 -517 c123 -20 190 -85 190 -185 -1 -113
-82 -179 -236 -191 -45 -4 -94 -4 -108 0 l-26 6 0 190 0 190 58 0 c31 0 86 -5
122 -10z"/>
<path d="M3420 1735 c-73 -15 -179 -50 -193 -64 -9 -9 33 -184 47 -198 2 -2
22 5 45 16 85 44 232 63 312 41 44 -12 77 -46 85 -87 l6 -31 -56 -6 c-31 -3
-82 -9 -113 -12 -182 -19 -323 -103 -378 -225 -77 -173 3 -367 177 -425 74
-24 205 -16 278 18 30 14 69 40 87 57 l32 33 7 -51 7 -51 136 0 136 0 -3 307
c-1 170 -7 337 -13 373 -34 217 -177 321 -434 319 -55 0 -129 -7 -165 -14z
m310 -596 c0 -45 -6 -84 -17 -106 -40 -85 -172 -115 -234 -54 -23 24 -29 38
-29 73 0 99 80 154 228 157 l52 1 0 -71z"/>
<path d="M4594 1730 c-103 -27 -170 -64 -239 -134 -96 -96 -145 -220 -145
-366 1 -254 136 -429 377 -486 51 -12 97 -15 183 -11 101 5 210 24 226 40 3 3
-2 55 -12 116 -14 95 -19 111 -33 106 -42 -16 -132 -27 -188 -22 -76 7 -130
34 -175 87 -43 50 -58 98 -58 189 0 117 46 196 137 238 50 23 64 25 151 20 54
-3 106 -8 118 -12 19 -6 22 0 42 95 12 55 22 107 22 115 0 21 -126 45 -237 44
-62 0 -124 -7 -169 -19z"/>
<path d="M8125 1726 c-57 -27 -113 -82 -143 -141 l-21 -40 -1 61 c0 34 -3 76
-6 93 l-6 31 -129 0 -129 0 0 -490 0 -490 154 0 155 0 3 288 c3 285 3 287 28
330 15 27 42 54 70 70 39 23 56 27 123 26 l77 0 0 143 0 143 -62 0 c-45 0 -77
-7 -113 -24z"/>
<path d="M9275 1737 c-157 -52 -270 -180 -310 -349 -19 -83 -19 -225 1 -302
35 -134 119 -241 232 -294 50 -24 69 -27 162 -27 119 0 161 15 234 84 l38 36
-7 -74 c-3 -41 -13 -92 -22 -113 -19 -47 -80 -101 -132 -116 -84 -26 -225 -10
-335 38 l-45 19 -11 -42 c-6 -23 -20 -73 -30 -112 -22 -82 -22 -83 74 -115 89
-29 208 -43 311 -36 260 17 407 118 468 325 21 70 23 132 29 799 l3 272 -131
0 -132 0 -7 -55 -6 -54 -31 35 c-53 60 -119 87 -223 91 -56 2 -105 -2 -130
-10z m255 -239 c31 -16 51 -36 67 -67 21 -39 23 -58 23 -175 0 -117 -3 -137
-22 -176 -32 -62 -77 -90 -145 -90 -67 0 -105 19 -142 71 -59 81 -68 246 -18
345 29 57 49 77 97 98 49 21 89 20 140 -6z"/>
<path d="M11167 1728 c-40 -14 -77 -37 -118 -75 l-59 -55 0 35 c0 19 -3 49 -6
66 l-6 31 -136 0 -135 0 7 -61 c3 -34 6 -255 6 -490 l0 -429 155 0 155 0 0
313 c0 305 1 313 23 352 33 57 79 85 142 85 63 0 99 -24 126 -84 17 -37 19
-71 19 -353 l0 -313 156 0 155 0 -3 358 c-4 338 -5 360 -26 415 -56 151 -168
228 -326 226 -44 0 -94 -8 -129 -21z"/>
<path d="M8450 1240 l0 -490 155 0 155 0 0 490 0 490 -155 0 -155 0 0 -490z"/>
<path d="M10170 1240 l0 -490 155 0 155 0 0 490 0 490 -155 0 -155 0 0 -490z"/>
</g>
</svg>
