<svg width="140" height="29" viewBox="0 0 140 29" fill="none" xmlns="http://www.w3.org/2000/svg">
<path d="M12.8823 29C10.2143 29 7.91485 28.4321 5.98379 27.2964C4.0781 26.1348 2.6044 24.4829 1.56263 22.3405C0.520878 20.1723 0 17.5653 0 14.5194C0 11.4994 0.508173 8.91815 1.52452 6.77575C2.54088 4.60752 4.00187 2.94264 5.90747 1.78109C7.83865 0.619542 10.1635 0.0387689 12.8823 0.0387689C15.5756 0.0387689 17.8878 0.606637 19.8189 1.74237C21.7499 2.8781 23.2363 4.53008 24.2781 6.69831C25.3198 8.84071 25.8406 11.4348 25.8406 14.4807C25.8406 17.5007 25.3326 20.0949 24.3162 22.2631C23.2998 24.4313 21.8261 26.0961 19.8951 27.2577C17.964 28.4193 15.6263 29 12.8823 29ZM12.8823 24.8184C15.4486 24.8184 17.4431 23.9666 18.866 22.2631C20.3143 20.5336 21.0385 17.9524 21.0385 14.5194C21.0385 11.2671 20.3524 8.73746 18.9804 6.93061C17.6082 5.09795 15.5756 4.18162 12.8823 4.18162C10.3667 4.18162 8.38493 5.04632 6.93658 6.77575C5.48823 8.47935 4.76414 11.0476 4.76414 14.4807C4.76414 17.7071 5.45013 20.2368 6.82228 22.0694C8.19431 23.9021 10.2143 24.8184 12.8823 24.8184Z" fill="white"/>
<path d="M43.2513 8.98263C43.1751 7.27903 42.6033 5.98842 41.5363 5.1108C40.469 4.23319 39.0589 3.79439 37.3056 3.79439C35.6287 3.79439 34.3456 4.14285 33.4562 4.83978C32.5923 5.53671 32.1604 6.45304 32.1604 7.58877C32.1604 8.56964 32.4526 9.344 33.037 9.91186C33.6214 10.4797 34.4599 10.9444 35.5525 11.3057C36.645 11.6671 37.9281 12.0027 39.4018 12.3124C40.9519 12.6221 42.4001 13.0739 43.7468 13.6675C45.0934 14.2612 46.1733 15.1001 46.9864 16.1842C47.8249 17.2684 48.2441 18.7268 48.2441 20.5594C48.2441 23.0889 47.3041 25.1282 45.4237 26.6768C43.5689 28.2256 40.9391 29 37.5343 29C35.2984 29 33.3673 28.6128 31.7412 27.8384C30.1404 27.064 28.8953 25.9928 28.006 24.6247C27.1422 23.2309 26.6976 21.6177 26.6721 19.785L31.0932 19.2042C31.1694 21.1918 31.7793 22.6889 32.9227 23.6955C34.0915 24.7023 35.6541 25.2056 37.6106 25.2056C39.3637 25.2056 40.774 24.87 41.8411 24.1988C42.9083 23.5278 43.4418 22.4178 43.4418 20.8691C43.4418 19.785 43.1496 18.959 42.5652 18.3911C42.0062 17.8233 41.2567 17.3974 40.3166 17.1134C39.3765 16.8038 38.3475 16.5198 37.2294 16.2616C35.1713 15.8229 33.4054 15.2808 31.9317 14.6355C30.4835 13.9644 29.3781 13.0996 28.6159 12.0414C27.8536 10.9831 27.4725 9.61503 27.4725 7.93724C27.4725 6.3885 27.879 5.02047 28.6921 3.8331C29.5052 2.61994 30.6486 1.67779 32.1223 1.00667C33.596 0.335558 35.3237 0 37.3056 0C40.5326 0 43.0481 0.774365 44.8521 2.32309C46.6561 3.84602 47.6216 5.88517 47.7487 8.44058L43.2513 8.98263Z" fill="white"/>
<path d="M62.1277 29C59.409 29 57.0968 28.4063 55.1911 27.219C53.2854 26.0317 51.8245 24.3538 50.8081 22.1856C49.7917 20.0173 49.2835 17.449 49.2835 14.4807C49.2835 11.4348 49.8172 8.84071 50.8843 6.69831C51.9515 4.53008 53.4506 2.8781 55.3816 1.74237C57.3382 0.606637 59.6376 0.0387689 62.2801 0.0387689C64.5669 0.0387689 66.5616 0.451763 68.2639 1.27775C69.9917 2.07793 71.3637 3.20076 72.3801 4.64624C73.4219 6.09172 74.0698 7.78241 74.3239 9.71833L69.7504 10.3765C69.3946 8.31156 68.5434 6.76284 67.1967 5.73034C65.8755 4.69786 64.2239 4.18162 62.242 4.18162C59.498 4.18162 57.4397 5.11085 56.0677 6.96933C54.721 8.80199 54.0477 11.3058 54.0477 14.4807C54.0477 17.9395 54.7846 20.5336 56.2583 22.2631C57.732 23.9666 59.7138 24.8184 62.2039 24.8184C64.4145 24.8184 66.155 24.2635 67.4254 23.1536C68.7213 22.0179 69.5344 20.4949 69.8647 18.5848L74.4001 19.0881C74.146 21.2048 73.46 22.9987 72.342 24.47C71.2494 25.9413 69.8266 27.0641 68.0734 27.8384C66.3201 28.6128 64.3382 29 62.1277 29Z" fill="white"/>
<path d="M73.3243 28.6129L84.4152 0.387293H89.6748L100.766 28.6129H95.9635L93.3336 21.7598H80.642L78.0122 28.6129H73.3243ZM85.6348 8.82787L82.1665 17.8492H91.8473L88.4171 8.82787C87.9597 7.66632 87.4896 6.3499 87.0069 4.87861C86.5496 6.32408 86.0922 7.64051 85.6348 8.82787Z" fill="white"/>
<path d="M101.806 28.6129V0.387293H115.335C118.156 0.387293 120.342 1.08422 121.891 2.47808C123.467 3.84613 124.254 5.67878 124.254 7.97607C124.254 9.62805 123.835 11.0606 122.996 12.2738C122.184 13.4612 121.04 14.2871 119.566 14.7518C120.811 15.0099 121.726 15.3842 122.31 15.8745C122.895 16.3392 123.276 16.92 123.454 17.617C123.657 18.288 123.758 19.0882 123.758 20.0174V26.6769C123.758 26.9867 123.797 27.2965 123.873 27.6062C123.949 27.8901 124.127 28.0838 124.407 28.187V28.6129H119.756C119.578 28.3547 119.439 28.045 119.337 27.6837C119.262 27.3222 119.224 26.806 119.224 26.1349V20.7144C119.224 19.398 119.007 18.4171 118.575 17.7718C118.169 17.1265 117.292 16.8039 115.946 16.8039H106.341V28.6129H101.806ZM106.341 12.932H114.688C116.238 12.932 117.42 12.5577 118.232 11.8092C119.071 11.0606 119.49 9.98941 119.49 8.59556C119.49 7.2017 119.071 6.15631 118.232 5.45938C117.393 4.73664 116.225 4.37528 114.726 4.37528H106.341V12.932Z" fill="white"/>
<path d="M134.248 11.6116C131.06 11.6116 128.497 9.00793 128.497 5.79531C128.497 2.58269 131.06 0 134.248 0C137.437 0 140 2.58269 140 5.79531C140 9.00793 137.437 11.6116 134.248 11.6116ZM134.248 10.3728C136.874 10.3728 138.729 8.27302 138.729 5.79531C138.729 3.31761 136.874 1.25985 134.248 1.25985C131.643 1.25985 129.768 3.31761 129.768 5.79531C129.768 8.27302 131.643 10.3728 134.248 10.3728ZM131.935 8.94494V2.66668H134.144C135.728 2.66668 136.707 3.4016 136.707 4.61945C136.707 5.48035 136.228 6.13127 135.395 6.36224L136.937 8.94494H135.457L134.123 6.55122H133.248V8.94494H131.935ZM133.248 5.48035H134.207C134.957 5.48035 135.395 5.16539 135.395 4.59845C135.395 4.05252 134.957 3.77955 134.207 3.77955H133.248V5.48035Z" fill="white"/>
</svg>
