<?xml version="1.0" standalone="no"?>
<!DOCTYPE svg PUBLIC "-//W3C//DTD SVG 20010904//EN"
 "http://www.w3.org/TR/2001/REC-SVG-20010904/DTD/svg10.dtd">
<svg version="1.0" xmlns="http://www.w3.org/2000/svg"
 width="1312.000000pt" height="280.000000pt" viewBox="0 0 1312.000000 280.000000"
 preserveAspectRatio="xMidYMid meet">

<g transform="translate(0.000000,280.000000) scale(0.100000,-0.100000)"
fill="#000000" stroke="none">
<path d="M1790 1400 l0 -960 960 0 960 0 0 960 0 960 -960 0 -960 0 0 -960z
m1125 685 c137 -28 271 -116 365 -237 36 -47 90 -171 107 -248 25 -111 22
-291 -5 -404 -49 -196 -162 -346 -323 -425 -102 -50 -193 -71 -320 -71 -328 0
-564 203 -625 540 -66 367 116 723 422 824 116 38 259 46 379 21z"/>
<path d="M2635 1826 c-132 -63 -205 -215 -205 -431 0 -274 124 -447 323 -448
88 0 131 17 195 78 141 131 175 446 70 653 -35 70 -89 124 -152 153 -61 28
-167 26 -231 -5z"/>
<path d="M5000 1555 l0 -535 115 0 115 0 0 535 0 535 -115 0 -115 0 0 -535z"/>
<path d="M6880 1555 l0 -535 115 0 115 0 0 116 c0 110 1 117 27 149 l27 34 88
-150 88 -149 140 0 c77 0 140 2 140 4 0 3 -65 99 -145 215 -80 116 -145 213
-145 216 0 4 55 69 123 146 67 76 124 144 125 149 2 6 -46 10 -131 10 l-135 0
-101 -151 -101 -151 0 316 0 316 -115 0 -115 0 0 -535z"/>
<path d="M9416 2070 c-41 -13 -65 -38 -76 -81 -27 -97 78 -179 172 -135 98 47
85 187 -21 216 -41 11 -36 11 -75 0z"/>
<path d="M10701 2067 c-48 -17 -76 -59 -76 -113 0 -36 6 -49 33 -76 29 -29 39
-33 87 -33 46 0 58 4 84 29 95 91 -2 237 -128 193z"/>
<path d="M8045 2040 c-225 -45 -374 -225 -392 -476 -23 -324 177 -558 477
-558 302 1 493 205 493 529 1 168 -50 292 -159 394 -106 99 -266 141 -419 111z
m183 -199 c86 -44 141 -144 149 -271 19 -275 -145 -449 -335 -354 -101 50
-147 160 -140 333 5 113 23 171 73 237 53 69 174 96 253 55z"/>
<path d="M4200 2034 c-19 -2 -50 -7 -67 -10 l-33 -5 0 -499 0 -498 87 -7 c49
-4 149 -5 223 -2 185 8 274 34 350 103 56 51 82 105 88 184 8 112 -48 204
-150 250 l-38 17 45 28 c25 16 57 47 73 69 24 35 27 48 27 121 0 70 -3 87 -25
119 -31 45 -98 91 -165 113 -49 15 -328 27 -415 17z m317 -183 c49 -23 63 -45
63 -100 0 -75 -78 -121 -205 -121 l-45 0 0 120 0 120 73 0 c49 0 85 -6 114
-19z m11 -408 c70 -35 98 -110 67 -177 -26 -53 -80 -78 -182 -84 l-83 -5 0
148 0 148 81 -6 c46 -4 97 -14 117 -24z"/>
<path d="M5555 1755 c-82 -18 -147 -45 -142 -59 3 -7 13 -40 22 -75 14 -50 21
-61 34 -55 102 44 218 57 269 30 32 -17 52 -43 52 -70 0 -13 -12 -16 -57 -16
-255 -1 -419 -160 -362 -351 46 -152 264 -205 402 -97 38 30 42 29 49 -17 3
-18 12 -20 106 -23 l102 -3 0 218 c0 120 -5 247 -11 283 -13 81 -53 154 -105
191 -76 55 -226 73 -359 44z m245 -442 c-1 -32 -6 -68 -14 -81 -50 -91 -196
-78 -196 17 0 66 42 100 140 115 71 10 70 11 70 -51z"/>
<path d="M6453 1755 c-178 -48 -282 -174 -291 -352 -4 -64 0 -97 18 -154 19
-63 30 -81 83 -134 52 -51 74 -66 132 -85 80 -27 202 -31 299 -10 l58 12 -7
61 c-13 116 -13 116 -48 106 -18 -5 -61 -9 -97 -9 -78 0 -121 19 -164 73 -27
33 -31 48 -34 111 -6 106 28 166 111 201 42 17 133 20 173 5 15 -6 29 -9 31
-6 3 2 13 41 23 86 13 59 15 82 7 85 -77 27 -213 31 -294 10z"/>
<path d="M9095 1752 c-43 -20 -98 -76 -112 -114 -6 -17 -9 -6 -13 47 l-5 70
-97 3 -98 3 0 -371 0 -370 114 0 114 0 4 218 c3 190 5 222 21 245 30 47 74 67
145 67 l63 0 -3 108 -3 107 -45 3 c-27 1 -61 -5 -85 -16z"/>
<path d="M9953 1756 c-199 -65 -296 -308 -212 -531 69 -185 294 -255 446 -139
l33 25 0 -43 c0 -57 -36 -127 -79 -155 -46 -31 -170 -32 -251 -3 -30 11 -59
21 -64 23 -5 1 -19 -36 -30 -82 -20 -81 -20 -83 -2 -97 38 -27 162 -46 274
-42 161 7 253 47 312 136 62 93 64 109 68 530 l3 383 -98 -3 -98 -3 -5 -45
c-5 -42 -6 -44 -18 -23 -7 12 -33 34 -58 49 -55 32 -156 42 -221 20z m212
-188 c41 -32 55 -76 54 -170 0 -104 -14 -146 -58 -175 -68 -46 -153 -19 -194
61 -28 54 -27 167 2 223 30 60 64 83 121 83 33 0 55 -6 75 -22z"/>
<path d="M11389 1756 c-50 -18 -106 -53 -124 -79 -16 -24 -22 -14 -27 43 l-3
35 -97 3 -98 3 0 -371 0 -370 115 0 115 0 0 218 c0 119 5 234 10 254 15 51 61
88 111 88 55 0 77 -14 100 -63 16 -37 19 -68 19 -269 l0 -228 116 0 115 0 -3
273 c-3 262 -4 274 -27 325 -55 122 -197 183 -322 138z"/>
<path d="M9347 1753 c-4 -3 -7 -170 -7 -370 l0 -363 115 0 115 0 0 370 0 370
-108 0 c-60 0 -112 -3 -115 -7z"/>
<path d="M10630 1390 l0 -370 115 0 115 0 0 370 0 370 -115 0 -115 0 0 -370z"/>
</g>
</svg>
