<svg width="24" height="24" viewBox="0 0 24 24" fill="none" xmlns="http://www.w3.org/2000/svg">
<path d="M12.0004 4.39922C14.4307 4.39922 14.7183 4.40892 15.6768 4.4526C16.565 4.49264 17.0467 4.64188 17.367 4.76564C17.7916 4.93066 18.095 5.12844 18.4141 5.44632C18.732 5.76544 18.9297 6.06876 19.0935 6.49344C19.2185 6.81376 19.3678 7.29544 19.4078 8.1824C19.4515 9.14214 19.4611 9.4297 19.4611 11.86C19.4611 14.2903 19.4515 14.5779 19.4078 15.5364C19.3665 16.4245 19.2185 16.9063 19.0948 17.2266C18.9297 17.6512 18.732 17.9546 18.4141 18.2737C18.1205 18.5758 17.7625 18.8076 17.367 18.9532C17.0467 19.0781 16.565 19.2273 15.6781 19.2674C14.7183 19.3111 14.4307 19.3209 12.0004 19.3209C9.57009 19.3209 9.28253 19.3111 8.32399 19.2674C7.43583 19.2273 6.95413 19.0781 6.63381 18.9543C6.20915 18.7894 5.90581 18.5916 5.58671 18.2737C5.28459 17.9801 5.05285 17.6221 4.90725 17.2266C4.78227 16.9063 4.63303 16.4245 4.59299 15.5376C4.54931 14.5779 4.53961 14.2903 4.53961 11.86C4.53961 9.4297 4.54931 9.14214 4.59299 8.1836C4.63303 7.29544 4.78227 6.81376 4.90603 6.49344C5.07105 6.06876 5.26881 5.76544 5.58671 5.44632C5.90581 5.12844 6.20915 4.93066 6.63381 4.76686C6.95413 4.64188 7.43583 4.49264 8.32277 4.4526C9.28253 4.40892 9.57009 4.39922 12.0004 4.39922ZM12.0004 2.76001C9.52883 2.76001 9.21943 2.77093 8.24877 2.81461C7.27931 2.8595 6.61805 3.01238 6.04049 3.23806C5.43261 3.46616 4.88177 3.8241 4.42677 4.2876C3.96449 4.7426 3.60655 5.29224 3.37845 5.8989C3.15277 6.47766 2.99989 7.14014 2.95499 8.10716C2.91131 9.07784 2.90039 9.38844 2.90039 11.86C2.90039 14.3316 2.91131 14.641 2.95499 15.6117C2.99989 16.5811 3.15277 17.2424 3.37845 17.8199C3.61019 18.4193 3.92201 18.9265 4.42797 19.4337C4.93393 19.9384 5.44111 20.2502 6.03929 20.482C6.61805 20.7077 7.27931 20.8617 8.24755 20.9054C9.21821 20.9491 9.52883 20.96 12.0004 20.96C14.472 20.96 14.7814 20.9491 15.752 20.9054C16.7215 20.8617 17.3827 20.7077 17.9603 20.482C18.5682 20.2538 19.119 19.896 19.574 19.4324C20.0788 18.9265 20.3906 18.4193 20.6223 17.8212C20.848 17.2424 21.0009 16.5811 21.0458 15.6128C21.0895 14.6422 21.1004 14.3316 21.1004 11.86C21.1004 9.38844 21.0895 9.07904 21.0458 8.10838C21.0009 7.14014 20.848 6.47766 20.6223 5.90012C20.3942 5.29224 20.0363 4.74138 19.5729 4.28638C19.1179 3.8241 18.5682 3.46616 17.9615 3.23806C17.3827 3.01238 16.7202 2.8595 15.7532 2.81461C14.7826 2.77093 14.472 2.76001 12.0004 2.76001ZM12.0004 7.18746C9.41963 7.18746 7.32785 9.27924 7.32785 11.86C7.32785 14.4408 9.41963 16.5326 12.0004 16.5326C14.5812 16.5326 16.6729 14.4408 16.6729 11.86C16.6729 9.27924 14.5812 7.18746 12.0004 7.18746ZM12.0004 14.8933C10.3248 14.8933 8.96705 13.5356 8.96705 11.86C8.96705 10.1844 10.3248 8.82668 12.0004 8.82668C13.676 8.82668 15.0337 10.1844 15.0337 11.86C15.0337 13.5356 13.676 14.8933 12.0004 14.8933ZM17.9505 7.00182C17.9505 7.60484 17.4617 8.09382 16.8585 8.09382C16.2556 8.09382 15.7665 7.60484 15.7665 7.00182C15.7665 6.3988 16.2556 5.90982 16.8585 5.90982C17.4617 5.90982 17.9505 6.3988 17.9505 7.00182Z" fill="white"/>
</svg>
