<svg width="24" height="24" viewBox="0 0 24 24" fill="none" xmlns="http://www.w3.org/2000/svg">
<mask id="mask0_4451_4620" style="mask-type:luminance" maskUnits="userSpaceOnUse" x="3" y="4" width="18" height="16">
<path d="M20.4 4.51868H3V19.0884H20.4V4.51868Z" fill="white"/>
</mask>
<g mask="url(#mask0_4451_4620)">
<path d="M7.08302 6.13335C7.08266 6.56087 6.9107 6.97073 6.60497 7.27278C6.29924 7.57482 5.88478 7.74432 5.45277 7.74397C5.02076 7.74362 4.60658 7.57346 4.30134 7.27091C3.99612 6.96836 3.82484 6.55822 3.8252 6.13071C3.82555 5.70337 3.99744 5.29367 4.30305 4.99175C4.45437 4.84226 4.63396 4.72371 4.83158 4.6429C5.02919 4.56209 5.24096 4.52057 5.45477 4.52075C5.6686 4.52093 5.88029 4.56278 6.07778 4.64391C6.27525 4.72505 6.45465 4.84388 6.60572 4.99363C6.7568 5.14337 6.87658 5.32109 6.95824 5.51665C7.03991 5.71221 7.08318 5.92176 7.08302 6.13335ZM7.12986 8.93604H3.87472V19.0222H7.1312L7.12986 8.93604ZM12.2749 8.93604H9.03582V19.0222H12.2428V13.7295C12.2428 10.7811 16.1257 10.5069 16.1257 13.7295V19.0222H19.342V12.6341C19.342 7.66317 13.5946 7.8486 12.2428 10.2897L12.2749 8.93604Z" fill="white"/>
</g>
</svg>
